<?xml version="1.0" encoding="UTF-8"?>
<svg version="1.1" xmlns="http://www.w3.org/2000/svg" width="963" height="235">
<path d="M0 0 C10.31571049 7.89143493 16.32876014 17.8907965 18.625 30.75 C18.92552191 34.7115634 18.95270754 38.66101667 18.9609375 42.6328125 C18.9709227 44.33061356 18.9709227 44.33061356 18.98110962 46.06271362 C18.99120104 48.45129786 18.99592773 50.83991009 18.99560547 53.22851562 C18.99996136 56.84293337 19.03627309 60.45611172 19.07421875 64.0703125 C19.16307644 82.05812435 18.14039925 96.08222823 5.62890625 109.96484375 C-0.36367279 115.86945833 -8.75725889 120.75 -17.375 120.75 C-17.23679731 124.0628652 -17.08816222 127.37517989 -16.9375 130.6875 C-16.89818359 131.63302734 -16.85886719 132.57855469 -16.81835938 133.55273438 C-16.75551758 134.90141602 -16.75551758 134.90141602 -16.69140625 136.27734375 C-16.65474854 137.10999756 -16.61809082 137.94265137 -16.58032227 138.80053711 C-16.58132897 140.75338858 -16.58132897 140.75338858 -15.375 141.75 C-13.02512738 141.98527773 -10.66943961 142.16386417 -8.3125 142.3125 C-6.023125 142.456875 -3.73375 142.60125 -1.375 142.75 C-1.375 150.01 -1.375 157.27 -1.375 164.75 C-5.91702541 164.83100045 -10.45760304 164.89050969 -15 164.9375 C-16.28519531 164.96263672 -17.57039062 164.98777344 -18.89453125 165.01367188 C-20.76044922 165.02817383 -20.76044922 165.02817383 -22.6640625 165.04296875 C-24.37650146 165.06653442 -24.37650146 165.06653442 -26.12353516 165.09057617 C-31.41040193 164.53680089 -35.31792111 162.39050788 -38.6875 158.3125 C-39.17863281 157.73628906 -39.66976562 157.16007813 -40.17578125 156.56640625 C-42.79721254 152.59583442 -42.49232854 148.43953556 -42.47265625 143.796875 C-42.4712413 143.13665344 -42.46982635 142.47643188 -42.46836853 141.79620361 C-42.46279245 139.69742206 -42.45024447 137.59874905 -42.4375 135.5 C-42.4324819 134.07291821 -42.42791954 132.64583475 -42.42382812 131.21875 C-42.41283088 127.72913168 -42.3955828 124.23957644 -42.375 120.75 C-42.96667969 120.62955322 -43.55835938 120.50910645 -44.16796875 120.38500977 C-55.15301482 118.06323157 -63.30814314 113.70855851 -70.375 104.75 C-77.03357404 94.04210042 -78.68515554 84.15334521 -78.7109375 71.734375 C-78.7175943 70.6015509 -78.7242511 69.46872681 -78.73110962 68.30157471 C-78.74119066 65.91477063 -78.74592806 63.52793863 -78.74560547 61.14111328 C-78.74997033 57.52458313 -78.78631808 53.9092829 -78.82421875 50.29296875 C-78.91100887 32.62640899 -77.57997311 17.73997003 -65.25 4 C-48.83461502 -11.39624799 -18.31957558 -11.93093074 0 0 Z M-47.6875 21.75 C-54.78397323 31.21368717 -53.81722194 44.00531328 -53.71118164 55.25073242 C-53.68745286 57.94284793 -53.69065811 60.63397715 -53.69726562 63.32617188 C-53.69169098 65.06510998 -53.68458245 66.80404398 -53.67578125 68.54296875 C-53.67669266 69.3338237 -53.67760406 70.12467865 -53.67854309 70.9394989 C-53.56939392 79.6583439 -52.23528448 87.9869563 -46.375 94.75 C-39.34311608 100.09732272 -31.91862778 100.61407145 -23.375 99.75 C-17.62183649 97.9062335 -12.27989866 95.21120948 -9.375 89.75 C-5.87009474 80.07611828 -5.94322707 70.38658459 -6.03881836 60.24926758 C-6.06254714 57.55715207 -6.05934189 54.86602285 -6.05273438 52.17382812 C-6.05830902 50.43489002 -6.06541755 48.69595602 -6.07421875 46.95703125 C-6.07330734 46.1661763 -6.07239594 45.37532135 -6.07145691 44.5605011 C-6.18376588 35.58925075 -7.75193134 27.89632069 -13.375 20.75 C-19.40699764 15.01960224 -25.0624227 14.28625698 -33.1484375 14.44140625 C-39.28415747 15.02823661 -43.36860649 17.44164038 -47.6875 21.75 Z " fill="#FFFFFF" transform="translate(530.375,7.25)"/>
<path d="M0 0 C8.25 0 16.5 0 25 0 C25 41.25 25 82.5 25 125 C16.75 125 8.5 125 0 125 C0 120.71 0 116.42 0 112 C-0.99 112 -1.98 112 -3 112 C-3.2784375 113.051875 -3.2784375 113.051875 -3.5625 114.125 C-6.38351879 119.76703757 -11.11173993 122.89297677 -16.8125 125.375 C-27.06282236 128.73993341 -39.71724745 128.6208379 -49.6171875 124.24609375 C-50.79667969 123.62927734 -50.79667969 123.62927734 -52 123 C-52.78632812 122.59910156 -53.57265625 122.19820313 -54.3828125 121.78515625 C-63.57092045 116.41244906 -69.6365075 107.30486274 -72.375 97.12109375 C-75.22016221 81.46866018 -74.58533496 64.92030596 -66.25 51.1875 C-59.58079078 41.93774249 -50.99532654 36.63887837 -40 34 C-28.65013726 32.88489343 -17.68773643 32.93542003 -8.5625 40.375 C-5.76245296 42.99691284 -3.92649449 45.17821024 -3 49 C-2.01 49 -1.02 49 0 49 C0 32.83 0 16.66 0 0 Z M-44.5234375 63.9921875 C-49.29617562 70.48210124 -49.83368628 78.18419112 -49 86 C-47.56158775 92.84444497 -43.83962043 98.37044177 -38.06640625 102.32421875 C-31.01221392 106.01310832 -23.0778534 106.22727575 -15.4140625 104.375 C-9.57072766 102.1413703 -5.36743268 98.24237441 -2 93 C1.05560988 85.50915706 1.45020547 76.73548578 -1.5 69.125 C-4.4322307 63.4788962 -8.98102668 59.23728415 -14.859375 56.828125 C-25.9178363 53.91221232 -36.69690135 55.45089919 -44.5234375 63.9921875 Z " fill="#FFFFFF" transform="translate(73,2)"/>
<path d="M0 0 C3.30341497 2.23466307 5.92276946 4.93227526 7.9921875 8.34765625 C7.9921875 9.00765625 7.9921875 9.66765625 7.9921875 10.34765625 C8.9821875 10.34765625 9.9721875 10.34765625 10.9921875 10.34765625 C10.9921875 6.71765625 10.9921875 3.08765625 10.9921875 -0.65234375 C19.2421875 -0.65234375 27.4921875 -0.65234375 35.9921875 -0.65234375 C36.3221875 20.79765625 36.6521875 42.24765625 36.9921875 64.34765625 C39.3021875 65.00765625 41.6121875 65.66765625 43.9921875 66.34765625 C43.9921875 73.60765625 43.9921875 80.86765625 43.9921875 88.34765625 C39.2896875 88.47140625 39.2896875 88.47140625 34.4921875 88.59765625 C33.52087891 88.63407227 32.54957031 88.67048828 31.54882812 88.70800781 C25.54406394 88.78373918 20.96248826 87.84903913 15.9921875 84.34765625 C13.27572547 80.95207871 12.9921875 79.78098065 12.9921875 75.34765625 C12.0021875 75.34765625 11.0121875 75.34765625 9.9921875 75.34765625 C9.8271875 76.02828125 9.6621875 76.70890625 9.4921875 77.41015625 C6.66461327 82.94748911 1.88772119 86.27926453 -3.4453125 89.28515625 C-13.82961143 92.56872903 -26.43834067 91.24132661 -36.0078125 86.34765625 C-39.3828125 84.34765625 -39.3828125 84.34765625 -42.0078125 82.34765625 C-42.8121875 81.7546875 -43.6165625 81.16171875 -44.4453125 80.55078125 C-52.25955756 73.83243641 -56.6685684 63.39198703 -58.0078125 53.34765625 C-59.0184431 36.81662723 -57.4903853 22.44125863 -46.8203125 9.16015625 C-35.66133011 -3.0199095 -15.1094482 -7.29331496 0 0 Z M-28.9453125 26.22265625 C-32.72999311 31.95702081 -33.34984159 37.10567669 -33.3203125 43.78515625 C-33.33642578 44.51025391 -33.35253906 45.23535156 -33.36914062 45.98242188 C-33.3748778 52.36789765 -31.92679473 56.99004951 -27.8203125 62.03515625 C-21.44922154 67.27360882 -16.24253595 69.05203462 -7.90625 68.7265625 C-0.95395287 67.81770425 3.31203691 64.57397901 7.765625 59.32421875 C12.41512374 51.8317144 11.92558842 42.28075911 10.59765625 33.83984375 C8.88797518 28.21444151 4.76333432 24.58085098 -0.0078125 21.34765625 C-9.42450934 16.74666431 -21.79046592 18.31904665 -28.9453125 26.22265625 Z " fill="#FFFFFF" transform="translate(172.0078125,38.65234375)"/>
<path d="M0 0 C0.7734375 -0.020625 1.546875 -0.04125 2.34375 -0.0625 C9.894067 -0.11317327 16.06412939 1.57382678 21.6875 6.8125 C22.34621094 7.41191406 23.00492187 8.01132812 23.68359375 8.62890625 C25.25 10.25 25.25 10.25 26.25 12.25 C27.24 12.58 28.23 12.91 29.25 13.25 C29.25 9.62 29.25 5.99 29.25 2.25 C37.17 2.25 45.09 2.25 53.25 2.25 C53.26458252 4.14274658 53.27916504 6.03549316 53.29418945 7.9855957 C53.34581627 14.23626273 53.41109534 20.4866702 53.48571491 26.73710346 C53.53046024 30.52710663 53.5697068 34.31700128 53.59643555 38.10717773 C53.62242758 41.76431053 53.66279987 45.42102662 53.71318626 49.07790184 C53.72988295 50.4737041 53.74137979 51.86957849 53.74761391 53.26546669 C53.75722363 55.21916712 53.78696471 57.17273727 53.81762695 59.1262207 C53.82873001 60.2387471 53.83983307 61.3512735 53.85127258 62.49751282 C54.04501054 65.22535223 54.04501054 65.22535223 55.46452332 67.07023621 C57.60928828 68.64854962 57.60928828 68.64854962 62.25 69.25 C62.25 76.51 62.25 83.77 62.25 91.25 C59.094375 91.311875 55.93875 91.37375 52.6875 91.4375 C51.7070874 91.46481201 50.7266748 91.49212402 49.71655273 91.52026367 C44.09194556 91.5732991 40.20822683 90.9586011 35.25 88.25 C32.09889946 85.09889946 30.7561314 82.67864971 30.25 78.25 C27.9313709 80.48275395 25.93751176 82.66665099 24 85.25 C20.32672222 89.74208893 14.8959403 92.19820796 9.25 93.25 C-3.91631148 94.15444257 -15.35042213 93.00225692 -25.7890625 84.08984375 C-36.18026834 74.34032592 -39.96979471 63.44973637 -40.75 49.25 C-40.73485357 33.9672487 -37.58183996 21.33168323 -27 9.9375 C-19.10918692 2.44122758 -10.53998998 0.06888882 0 0 Z M-11.125 29.5625 C-16.52808001 36.53658425 -16.5472262 44.75298151 -15.75 53.25 C-14.28793868 59.64104647 -11.75106068 64.00553393 -6.62890625 68.09375 C-0.55087206 71.83407873 5.28458602 71.94122429 12.25 71.25 C18.54800414 69.73771329 22.51744409 66.75207824 26.09765625 61.38671875 C30.19229118 53.79429399 30.22729964 45.26659863 28.0625 37.0625 C26.05879204 31.07920541 23.23282381 27.19932264 17.75 23.875 C7.53967744 19.27261975 -3.62350989 21.57530189 -11.125 29.5625 Z " fill="#FFFFFF" transform="translate(365.75,35.75)"/>
<path d="M0 0 C0.89976562 -0.020625 1.79953125 -0.04125 2.7265625 -0.0625 C15.7347246 -0.13725955 26.24085062 4.64767625 35.6875 13.5 C47.21869227 25.64238621 46.875 37.7648424 46.875 54.25 C24.105 54.25 1.335 54.25 -22.125 54.25 C-17.46947379 64.14045664 -17.46947379 64.14045664 -9.125 69.25 C-2.06257761 71.51640884 6.15027199 70.99587458 13.05859375 68.4921875 C15.90253802 66.54729658 17.74421311 63.94729113 19.875 61.25 C23.00016547 62.72881725 26.1251041 64.20811322 29.25 65.6875 C30.13945313 66.10837891 31.02890625 66.52925781 31.9453125 66.96289062 C33.22148438 67.56713867 33.22148438 67.56713867 34.5234375 68.18359375 C35.70172119 68.7413147 35.70172119 68.7413147 36.90380859 69.31030273 C38.233629 69.94424858 39.55733248 70.59116624 40.875 71.25 C39.97895775 77.78316882 36.03437907 81.6229452 31.08984375 85.734375 C18.30401026 94.52972543 1.84380081 95.21225783 -13.01171875 92.5546875 C-25.28618535 89.09750046 -34.90791836 82.69291074 -41.66015625 71.765625 C-48.32436269 59.25323739 -49.31330572 43.9722871 -45.625 30.3125 C-41.55774384 18.99553813 -33.85813437 9.99467037 -23.02734375 4.75 C-14.97193991 1.30467539 -8.70098228 0.04860884 0 0 Z M-18.625 28.875 C-20.70207424 31.25626871 -20.70207424 31.25626871 -21.125 34.25 C-7.265 34.25 6.595 34.25 20.875 34.25 C19.9761761 29.13025567 19.9761761 29.13025567 16.625 26.0625 C16.04234375 25.57394531 15.4596875 25.08539063 14.859375 24.58203125 C4.34092342 17.5214171 -10.37069581 19.74379513 -18.625 28.875 Z " fill="#FFFFFF" transform="translate(731.125,35.75)"/>
<path d="M0 0 C8.25 0 16.5 0 25 0 C25 11.88 25 23.76 25 36 C35.89 36 46.78 36 58 36 C58 43.26 58 50.52 58 58 C47.11 58 36.22 58 25 58 C25.33 72.19 25.66 86.38 26 101 C28.73678725 102.36839363 31.04264424 102.21634818 34.1015625 102.31640625 C35.31328125 102.35830078 36.525 102.40019531 37.7734375 102.44335938 C39.04445313 102.48267578 40.31546875 102.52199219 41.625 102.5625 C42.90375 102.60568359 44.1825 102.64886719 45.5 102.69335938 C48.66653082 102.7996981 51.83325079 102.9003767 55 103 C55 110.26 55 117.52 55 125 C49.00387673 125.06903852 43.00914414 125.12872246 37.01293945 125.16479492 C34.97513138 125.17983947 32.93735546 125.20028012 30.8996582 125.22631836 C27.96297244 125.26289247 25.02671649 125.27976999 22.08984375 125.29296875 C21.18540024 125.30845261 20.28095673 125.32393646 19.34910583 125.33988953 C13.78320874 125.34135541 9.91714022 124.6688046 5 122 C0.86988258 117.65250798 -0.126761 114.40864639 -0.11352539 108.51879883 C-0.11344986 107.39786331 -0.11337433 106.2769278 -0.11329651 105.12202454 C-0.10813522 103.91257675 -0.10297394 102.70312897 -0.09765625 101.45703125 C-0.0962413 100.21829758 -0.09482635 98.9795639 -0.09336853 97.70329285 C-0.08871602 94.41368463 -0.0797339 91.1241254 -0.06866455 87.83453369 C-0.05842629 84.47628388 -0.05381092 81.11802667 -0.04882812 77.75976562 C-0.03864157 71.17313798 -0.01906712 64.58663193 0 58 C-8.91 58 -17.82 58 -27 58 C-27 50.74 -27 43.48 -27 36 C-18.09 36 -9.18 36 0 36 C0 24.12 0 12.24 0 0 Z " fill="#FFFFFF" transform="translate(905,2)"/>
<path d="M0 0 C8.25 0 16.5 0 25 0 C25.02578125 4.021875 25.0515625 8.04375 25.078125 12.1875 C25.10984258 15.41212041 25.14549502 18.63664439 25.18379211 21.8611908 C25.22303109 25.25529947 25.25547726 28.64914998 25.27099609 32.04345703 C25.29247832 35.94606166 25.33916004 39.84768949 25.390625 43.75 C25.39185364 44.95551514 25.39308228 46.16103027 25.39434814 47.40307617 C25.51511365 54.38847891 26.23077313 59.06359971 30 65 C34.70887827 69.42349171 39.73816282 69.34459678 45.91796875 69.27734375 C51.76010985 68.7516251 55.42607692 66.69818017 59.375 62.4375 C63.20271731 54.34040568 63.31148901 45.24499968 63.4140625 36.42578125 C63.43342865 35.37593552 63.4527948 34.32608978 63.4727478 33.24443054 C63.53190828 29.93386631 63.57867196 26.62326609 63.625 23.3125 C63.66323839 21.05011613 63.7022934 18.78774591 63.7421875 16.52539062 C63.83907375 11.01700335 63.91914559 5.50873851 64 0 C71.92 0 79.84 0 88 0 C88 29.37 88 58.74 88 89 C80.08 89 72.16 89 64 89 C64 84.71 64 80.42 64 76 C60.7692802 76.73352519 60.7692802 76.73352519 59.1875 79.75 C55.7717057 84.82489439 51.53948151 88.52356773 45.65625 90.4921875 C34.32401395 92.65864439 22.54331685 91.89471679 12.73046875 85.52734375 C4.43878571 79.02014166 1.42939244 70.12054179 0 60 C-0.25603887 55.2967997 -0.23386611 50.60743171 -0.1953125 45.8984375 C-0.1924826 44.58082428 -0.18965271 43.26321106 -0.18673706 41.90567017 C-0.17917444 38.43691129 -0.1595913 34.9683253 -0.1373291 31.49963379 C-0.1167099 27.94639422 -0.10770131 24.39312616 -0.09765625 20.83984375 C-0.07633679 13.89315186 -0.04121672 6.94660208 0 0 Z " fill="#FFFFFF" transform="translate(572,38)"/>
<path d="M0 0 C7.92 0 15.84 0 24 0 C24 11.88 24 23.76 24 36 C35.22 36 46.44 36 58 36 C58 43.26 58 50.52 58 58 C46.78 58 35.56 58 24 58 C24.11982204 63.64183339 24.24243959 69.28345866 24.37231445 74.92504883 C24.4156494 76.84460825 24.45732552 78.76420585 24.49731445 80.68383789 C24.55505178 83.44168614 24.61873635 86.19934241 24.68359375 88.95703125 C24.70030624 89.81649857 24.71701874 90.67596588 24.73423767 91.56147766 C24.7641555 92.76238289 24.7641555 92.76238289 24.79467773 93.98754883 C24.81799416 95.04344963 24.81799416 95.04344963 24.84178162 96.12068176 C24.94481604 98.22699083 24.94481604 98.22699083 26 101 C28.73678725 102.36839363 31.04264424 102.21634818 34.1015625 102.31640625 C35.31328125 102.35830078 36.525 102.40019531 37.7734375 102.44335938 C39.04445313 102.48267578 40.31546875 102.52199219 41.625 102.5625 C42.90375 102.60568359 44.1825 102.64886719 45.5 102.69335938 C48.66653082 102.7996981 51.83325079 102.9003767 55 103 C55 110.26 55 117.52 55 125 C48.84316427 125.068977 42.68767637 125.12867975 36.53076172 125.16479492 C34.43761647 125.17985469 32.34450264 125.20030671 30.25146484 125.22631836 C27.23787672 125.26282501 24.22470688 125.27975473 21.2109375 125.29296875 C20.27945892 125.30845261 19.34798035 125.32393646 18.38827515 125.33988953 C11.94792768 125.341547 7.69199041 124.32820792 2.6875 120 C-0.1637181 116.62077855 -0.12291203 113.67914782 -0.11352539 109.42700195 C-0.11344986 108.28604568 -0.11337433 107.14508942 -0.11329651 105.96955872 C-0.10813522 104.73823715 -0.10297394 103.50691559 -0.09765625 102.23828125 C-0.0962413 100.97735153 -0.09482635 99.71642181 -0.09336853 98.4172821 C-0.08871575 95.06848291 -0.07973342 91.71975189 -0.06866455 88.37097168 C-0.05842687 84.95239867 -0.05381105 81.53381841 -0.04882812 78.11523438 C-0.03864107 71.41011784 -0.01906669 64.70512074 0 58 C-9.24 58 -18.48 58 -28 58 C-28 50.74 -28 43.48 -28 36 C-18.76 36 -9.52 36 0 36 C0 24.12 0 12.24 0 0 Z " fill="#FFFFFF" transform="translate(252,2)"/>
<path d="M0 0 C1.21042969 0.65355469 1.21042969 0.65355469 2.4453125 1.3203125 C7.78549022 4.54556835 12.01440714 8.46599038 15 14 C15.65625 16.74609375 15.65625 16.74609375 16 19 C8.7728592 22.14169523 1.60837466 24.92957946 -6 27 C-6.30292969 26.51789063 -6.60585938 26.03578125 -6.91796875 25.5390625 C-7.33691406 24.90742187 -7.75585938 24.27578125 -8.1875 23.625 C-8.59355469 22.99851562 -8.99960937 22.37203125 -9.41796875 21.7265625 C-12.15503321 18.73944523 -15.01453237 18.08805755 -18.97265625 17.734375 C-19.99230469 17.73953125 -21.01195312 17.7446875 -22.0625 17.75 C-23.59583984 17.74226563 -23.59583984 17.74226563 -25.16015625 17.734375 C-27.9877984 17.99885872 -29.64273713 18.44859211 -32 20 C-33.23843794 22.95319818 -33.04187157 23.87438528 -32 27 C-26.15118187 29.70913547 -20.54149317 30.66358509 -14.1875 31.4375 C-2.59568894 33.03545639 8.92934835 35.29435987 16.56640625 44.98828125 C18.90570484 48.52722014 20.66963452 51.70524879 21 56 C21.0825 57.051875 21.165 58.10375 21.25 59.1875 C20.69082075 67.7149836 18.03733811 74.85289211 12 81 C0.57045772 90.62487771 -14.90422493 89.96565576 -29 89 C-32.93380484 88.43615464 -36.34366316 87.53788492 -40 86 C-40.86625 85.64808594 -41.7325 85.29617187 -42.625 84.93359375 C-51.5117197 80.92663531 -57.50940341 75.16761081 -61 66 C-61.75 63 -61.75 63 -62 61 C-44.15 54 -44.15 54 -39 54 C-38.731875 54.60328125 -38.46375 55.2065625 -38.1875 55.828125 C-35.79647093 60.70456587 -33.70857721 64.27718483 -28.58203125 66.4140625 C-22.15848841 67.87174998 -14.0589107 68.54803173 -8.10546875 65.53515625 C-6.11663268 64.16822099 -6.11663268 64.16822099 -5 63 C-4.49957854 60.08461971 -4.49957854 60.08461971 -5 57 C-8.34807666 54.50518624 -11.25342394 53.54238684 -15.3515625 52.97265625 C-16.36863281 52.81990234 -17.38570312 52.66714844 -18.43359375 52.50976562 C-20.53767507 52.21488519 -22.64183999 51.92060055 -24.74609375 51.62695312 C-35.48273658 50.0130804 -47.47820023 47.39985376 -54.34375 38.19921875 C-58.41980631 31.40093911 -59.24519905 24.048307 -57.3515625 16.37109375 C-54.77112837 9.14808368 -51.02626485 4.223977 -44.27734375 0.49609375 C-31.09259571 -5.73250189 -13.14118499 -7.12367267 0 0 Z " fill="#FFFFFF" transform="translate(848,40)"/>
<path d="M0 0 C64.68 0 129.36 0 196 0 C196 7.26 196 14.52 196 22 C131.32 22 66.64 22 0 22 C0 14.74 0 7.48 0 0 Z " fill="#FFFFFF" transform="translate(232,150)"/>
<path d="M0 0 C4.29 0 8.58 0 13 0 C15.64 7.26 18.28 14.52 21 22 C23.15460159 19.84539841 23.68658907 18.51588374 24.69140625 15.68359375 C25.14870117 14.41418945 25.14870117 14.41418945 25.61523438 13.11914062 C25.92783203 12.23419922 26.24042969 11.34925781 26.5625 10.4375 C27.18636917 8.68532976 27.81254897 6.93397994 28.44140625 5.18359375 C28.71670166 4.40556396 28.99199707 3.62753418 29.27563477 2.82592773 C30 1 30 1 31 0 C32.51928038 -0.07179964 34.04167482 -0.08392007 35.5625 -0.0625 C36.38878906 -0.05347656 37.21507812 -0.04445312 38.06640625 -0.03515625 C38.70449219 -0.02355469 39.34257813 -0.01195312 40 0 C40.23710693 0.6612085 40.47421387 1.32241699 40.71850586 2.00366211 C41.78859637 4.98266193 42.86298824 7.96009221 43.9375 10.9375 C44.49727539 12.49887695 44.49727539 12.49887695 45.06835938 14.09179688 C45.42607422 15.08115234 45.78378906 16.07050781 46.15234375 17.08984375 C46.48226318 18.00628662 46.81218262 18.92272949 47.15209961 19.86694336 C47.81655068 21.9485164 47.81655068 21.9485164 49 23 C49.3556604 22.00818726 49.3556604 22.00818726 49.71850586 20.99633789 C50.78859637 18.01733807 51.86298824 15.03990779 52.9375 12.0625 C53.31068359 11.02158203 53.68386719 9.98066406 54.06835938 8.90820312 C54.42607422 7.91884766 54.78378906 6.92949219 55.15234375 5.91015625 C55.6472229 4.53549194 55.6472229 4.53549194 56.15209961 3.13305664 C57 1 57 1 58 0 C60.01964199 -0.07244053 62.04167124 -0.08377188 64.0625 -0.0625 C65.16722656 -0.05347656 66.27195312 -0.04445312 67.41015625 -0.03515625 C68.26480469 -0.02355469 69.11945313 -0.01195312 70 0 C65.19121994 14.21131344 59.64589319 28.10306112 54 42 C50.7 42 47.4 42 44 42 C40.85830477 34.7728592 38.07042054 27.60837466 36 20 C35.34 20 34.68 20 34 20 C33.76216797 20.87398437 33.76216797 20.87398437 33.51953125 21.765625 C31.5320262 28.7493444 28.89283683 35.34533188 26 42 C22.7 42 19.4 42 16 42 C12.45129311 33.65669106 9.12555285 25.24028161 5.9230957 16.75952148 C5.17350895 14.7754676 4.41993769 12.79295693 3.66601562 10.81054688 C3.1872678 9.54696295 2.70874327 8.2832944 2.23046875 7.01953125 C1.80145264 5.88620361 1.37243652 4.75287598 0.93041992 3.58520508 C0 1 0 1 0 0 Z " fill="#FFFFFF" transform="translate(5,192)"/>
<path d="M0 0 C3.96 -0.061875 7.92 -0.12375 12 -0.1875 C13.23234375 -0.21481201 14.4646875 -0.24212402 15.734375 -0.27026367 C23.30684515 -0.3272779 29.38401448 0.10721158 35.5 5 C37.81428024 9.62856047 37.99607288 13.94023848 37 19 C35.3491884 21.77202758 33.42534146 23.8850445 31 26 C31.39832031 26.59167969 31.79664063 27.18335938 32.20703125 27.79296875 C40 39.41605839 40 39.41605839 40 42 C35.55240327 42.53450346 31.42699994 42.77999523 27 42 C24.06997837 39.44169753 22.58898179 36.5134153 21 33 C19.6490712 30.0745356 19.6490712 30.0745356 18 28 C16.02 27.67 14.04 27.34 12 27 C12 31.95 12 36.9 12 42 C8.04 42 4.08 42 0 42 C0 28.14 0 14.28 0 0 Z M12 9 C12 11.97 12 14.94 12 18 C15.96 18 19.92 18 24 18 C24.66 16.35 25.32 14.7 26 13 C24.63516042 10.79191458 24.63516042 10.79191458 22 9 C18.6419531 8.64208904 15.36463643 8.76884177 12 9 Z " fill="#FFFFFF" transform="translate(542,192)"/>
<path d="M0 0 C9 0 9 0 11.13574219 1.28173828 C11.60141602 1.87196777 12.06708984 2.46219727 12.546875 3.0703125 C13.08183594 3.72 13.61679687 4.3696875 14.16796875 5.0390625 C14.69003906 5.72742188 15.21210937 6.41578125 15.75 7.125 C16.28753906 7.79015625 16.82507813 8.4553125 17.37890625 9.140625 C18.39214612 10.39792994 19.39469717 11.66399477 20.38183594 12.94189453 C22.53017207 15.6743136 24.7748216 18.32978592 27 21 C27.33 14.07 27.66 7.14 28 0 C31.63 0 35.26 0 39 0 C39 13.86 39 27.72 39 42 C30 42 30 42 26.9609375 39.69140625 C26.07214413 38.67119145 25.21057317 37.62674122 24.375 36.5625 C23.91697998 36.02206055 23.45895996 35.48162109 22.98706055 34.92480469 C21.62771953 33.30534728 20.30994982 31.65953921 19 30 C18.25621094 29.07574219 17.51242187 28.15148437 16.74609375 27.19921875 C15.13348718 25.15658376 13.56148287 23.08197716 12 21 C11.67 27.93 11.34 34.86 11 42 C7.37 42 3.74 42 0 42 C0 28.14 0 14.28 0 0 Z " fill="#FFFFFF" transform="translate(648,192)"/>
<path d="M0 0 C17.49 0 34.98 0 53 0 C53 7.26 53 14.52 53 22 C35.51 22 18.02 22 0 22 C0 14.74 0 7.48 0 0 Z " fill="#FFFFFF" transform="translate(161,150)"/>
<path d="M0 0 C17.49 0 34.98 0 53 0 C53 7.26 53 14.52 53 22 C35.51 22 18.02 22 0 22 C0 14.74 0 7.48 0 0 Z " fill="#FFFFFF" transform="translate(44,150)"/>
<path d="M0 0 C1.37478516 0.01740234 1.37478516 0.01740234 2.77734375 0.03515625 C3.69644531 0.04417969 4.61554687 0.05320313 5.5625 0.0625 C6.27277344 0.07410156 6.98304688 0.08570313 7.71484375 0.09765625 C10.56873368 5.75485069 13.41642473 11.41513299 16.25976562 17.07763672 C17.22838121 19.00479169 18.19842957 20.9312272 19.16992188 22.85693359 C20.56364516 25.62020334 21.95224606 28.38599399 23.33984375 31.15234375 C23.99605713 32.44928665 23.99605713 32.44928665 24.66552734 33.77243042 C25.06594238 34.57310944 25.46635742 35.37378845 25.87890625 36.19873047 C26.2342041 36.90488495 26.58950195 37.61103943 26.95556641 38.33859253 C27.71484375 40.09765625 27.71484375 40.09765625 27.71484375 42.09765625 C25.77925062 42.23269763 23.84097175 42.32966754 21.90234375 42.41015625 C20.82339844 42.46816406 19.74445312 42.52617187 18.6328125 42.5859375 C15.71484375 42.09765625 15.71484375 42.09765625 13.828125 39.765625 C12.71484375 37.09765625 12.71484375 37.09765625 12.71484375 34.09765625 C6.11484375 34.09765625 -0.48515625 34.09765625 -7.28515625 34.09765625 C-7.94515625 36.07765625 -8.60515625 38.05765625 -9.28515625 40.09765625 C-9.61515625 40.75765625 -9.94515625 41.41765625 -10.28515625 42.09765625 C-14.24515625 42.09765625 -18.20515625 42.09765625 -22.28515625 42.09765625 C-19.92365471 33.84169812 -16.14666389 26.43000694 -12.27783203 18.80175781 C-11.15020074 16.57802359 -10.03144175 14.34999443 -8.9140625 12.12109375 C-8.20232614 10.7067779 -7.49010449 9.29270613 -6.77734375 7.87890625 C-6.27423172 6.87905701 -6.27423172 6.87905701 -5.76095581 5.85900879 C-2.84722151 0.12167613 -2.84722151 0.12167613 0 0 Z M1.71484375 14.09765625 C1.04364826 15.55391075 0.37802568 17.01273492 -0.28515625 18.47265625 C-0.65640625 19.28476563 -1.02765625 20.096875 -1.41015625 20.93359375 C-2.41010638 23.01764058 -2.41010638 23.01764058 -2.28515625 25.09765625 C1.01484375 25.09765625 4.31484375 25.09765625 7.71484375 25.09765625 C7.09832792 23.44862605 6.47136633 21.80349784 5.83984375 20.16015625 C5.49179687 19.24363281 5.14375 18.32710937 4.78515625 17.3828125 C3.93293515 14.94824569 3.93293515 14.94824569 1.71484375 14.09765625 Z " fill="#FFFFFF" transform="translate(853.28515625,191.90234375)"/>
<path d="M0 0 C2.625 1.6875 2.625 1.6875 3.625 4.6875 C2.70296291 7.05272558 1.70801035 9.39151807 0.625 11.6875 C0.07972656 11.45933594 -0.46554687 11.23117188 -1.02734375 10.99609375 C-6.99658324 8.72064007 -11.09059582 8.59022308 -17.375 9.6875 C-17.375 10.6775 -17.375 11.6675 -17.375 12.6875 C-16.20582031 13.00203125 -15.03664062 13.3165625 -13.83203125 13.640625 C-12.28367848 14.07228698 -10.73551097 14.50461386 -9.1875 14.9375 C-8.41857422 15.14246094 -7.64964844 15.34742188 -6.85742188 15.55859375 C-2.2491693 16.86393568 1.15592769 18.21169163 4.625 21.6875 C5.83143566 25.30680698 5.94768559 27.87981005 5.625 31.6875 C3.16840598 36.60068805 0.70032368 38.67851771 -4.375 40.6875 C-13.21190167 43.28231918 -23.19699794 41.77650103 -31.375 37.6875 C-30.385 34.3875 -29.395 31.0875 -28.375 27.6875 C-27.116875 28.1825 -25.85875 28.6775 -24.5625 29.1875 C-19.1370338 31.02766609 -14.04586199 30.97369304 -8.375 30.6875 C-8.045 29.6975 -7.715 28.7075 -7.375 27.6875 C-8.54417969 27.37296875 -9.71335937 27.0584375 -10.91796875 26.734375 C-12.46632152 26.30271302 -14.01448903 25.87038614 -15.5625 25.4375 C-16.33142578 25.23253906 -17.10035156 25.02757812 -17.89257812 24.81640625 C-22.51857271 23.50603869 -25.84345306 22.11618635 -29.375 18.6875 C-31.10505482 15.22739036 -30.71712991 11.47724673 -30.375 7.6875 C-29.01028638 3.84924294 -27.46627613 2.75244647 -24.125 0.375 C-17.09952545 -2.8314318 -7.1816661 -2.79534829 0 0 Z " fill="#FFFFFF" transform="translate(269.375,193.3125)"/>
<path d="M0 0 C10.56 0 21.12 0 32 0 C32 2.97 32 5.94 32 9 C25.4 9 18.8 9 12 9 C12 11.31 12 13.62 12 16 C17.94 16 23.88 16 30 16 C30 18.97 30 21.94 30 25 C24.06 25 18.12 25 12 25 C12 27.64 12 30.28 12 33 C18.6 33 25.2 33 32 33 C32 35.97 32 38.94 32 42 C21.44 42 10.88 42 0 42 C0 28.14 0 14.28 0 0 Z " fill="#FFFFFF" transform="translate(442,192)"/>
<path d="M0 0 C10.56 0 21.12 0 32 0 C32 2.97 32 5.94 32 9 C25.4 9 18.8 9 12 9 C12 11.31 12 13.62 12 16 C17.94 16 23.88 16 30 16 C30 18.97 30 21.94 30 25 C24.06 25 18.12 25 12 25 C12 27.64 12 30.28 12 33 C18.6 33 25.2 33 32 33 C32 35.97 32 38.94 32 42 C21.44 42 10.88 42 0 42 C0 28.14 0 14.28 0 0 Z " fill="#FFFFFF" transform="translate(140,192)"/>
<path d="M0 0 C13.2 0 26.4 0 40 0 C40 3.3 40 6.6 40 10 C35.38 10 30.76 10 26 10 C26 20.56 26 31.12 26 42 C22.04 42 18.08 42 14 42 C14 31.44 14 20.88 14 10 C9.38 10 4.76 10 0 10 C0 6.7 0 3.4 0 0 Z " fill="#FFFFFF" transform="translate(337,192)"/>
<path d="M0 0 C9.57 0 19.14 0 29 0 C29 7.26 29 14.52 29 22 C19.43 22 9.86 22 0 22 C0 14.74 0 7.48 0 0 Z " fill="#FFFFFF" transform="translate(115,150)"/>
<path d="M0 0 C9.24 0 18.48 0 28 0 C28 7.26 28 14.52 28 22 C18.76 22 9.52 22 0 22 C0 14.74 0 7.48 0 0 Z " fill="#FFFFFF" transform="translate(0,150)"/>
<path d="M0 0 C3.96 0 7.92 0 12 0 C12 13.86 12 27.72 12 42 C8.04 42 4.08 42 0 42 C0 28.14 0 14.28 0 0 Z " fill="#FFFFFF" transform="translate(945,192)"/>
</svg>
