<?xml version="1.0" encoding="UTF-8"?>
<svg version="1.1" xmlns="http://www.w3.org/2000/svg" width="452" height="390">
<path d="M0 0 C1.62237277 0.25535492 3.24476979 0.51055581 4.8671875 0.765625 C6.51584686 1.02986949 8.1642887 1.29547502 9.8125 1.5625 C10.59616943 1.68923096 11.37983887 1.81596191 12.18725586 1.9465332 C17.76107605 2.88053802 17.76107605 2.88053802 20 4 C20 4.66 20 5.32 20 6 C21.155 6.12375 22.31 6.2475 23.5 6.375 C27.78350375 6.90278885 31.83352672 7.88398037 36 9 C36 9.66 36 10.32 36 11 C37.051875 11.12375 38.10375 11.2475 39.1875 11.375 C42.45958771 11.91140782 45.00536076 12.63880035 48 14 C48 14.66 48 15.32 48 16 C48.99 16 49.98 16 51 16 C51 16.66 51 17.32 51 18 C51.515625 18.0825 52.03125 18.165 52.5625 18.25 C56.04455732 19.32140225 58.87200885 21.13523605 62 23 C62 23.66 62 24.32 62 25 C62.7425 25.12375 63.485 25.2475 64.25 25.375 C66.80141485 25.95486701 68.7267573 26.73708739 71 28 C71 28.99 71 29.98 71 31 C71.804375 31.268125 72.60875 31.53625 73.4375 31.8125 C74.283125 32.204375 75.12875 32.59625 76 33 C76.33 33.99 76.66 34.98 77 36 C77.5775 36.144375 78.155 36.28875 78.75 36.4375 C81.91329732 37.22832433 83.61858919 38.80177464 86 41 C86.495 41.845625 86.99 42.69125 87.5 43.5625 C88.8456324 46.16841165 88.8456324 46.16841165 91.5 47.5 C94.48277992 49.28966795 95.31758399 51.00091058 97 54 C97.721875 54.721875 98.44375 55.44375 99.1875 56.1875 C99.785625 56.785625 100.38375 57.38375 101 58 C101 58.66 101 59.32 101 60 C101.66 60 102.32 60 103 60 C104.62109375 62.23046875 104.62109375 62.23046875 106.4375 65.1875 C107.03433594 66.15042969 107.63117188 67.11335938 108.24609375 68.10546875 C109.11427734 69.53826172 109.11427734 69.53826172 110 71 C110.85271484 72.32451172 110.85271484 72.32451172 111.72265625 73.67578125 C113 76 113 76 113 79 C113.99 79.33 114.98 79.66 116 80 C117.74672985 83.4934597 119 86.06845568 119 90 C119.66 90 120.32 90 121 90 C122.31626692 93.61973402 123 96.09567131 123 100 C123.66 100 124.32 100 125 100 C125.71628708 102.14886123 126.4313659 104.29802252 127.140625 106.44921875 C127.67049892 108.02198087 128.21880334 109.58883841 128.796875 111.14453125 C132.24580948 120.62910106 133.10404053 130.62348159 133.75390625 140.63671875 C133.86149804 143.01647162 133.86149804 143.01647162 135 145 C135.09629649 146.71662123 135.13075026 148.43693118 135.1328125 150.15625 C135.13410156 151.17847656 135.13539063 152.20070312 135.13671875 153.25390625 C135.13285156 154.32511719 135.12898438 155.39632812 135.125 156.5 C135.12886719 157.57121094 135.13273437 158.64242187 135.13671875 159.74609375 C135.13478516 161.27943359 135.13478516 161.27943359 135.1328125 162.84375 C135.13168457 163.78412109 135.13055664 164.72449219 135.12939453 165.69335938 C135 168 135 168 134 170 C133.67653627 172.95822284 133.39063633 175.91160985 133.125 178.875 C132.09021368 189.46441275 129.8926354 199.09147352 126 209 C125.649081 210.32881328 125.31118348 211.66132389 125 213 C124.34 213 123.68 213 123 213 C122.855625 214.093125 122.71125 215.18625 122.5625 216.3125 C122 220 122 220 121 223 C120.34 223 119.68 223 119 223 C118.90203125 223.62648437 118.8040625 224.25296875 118.703125 224.8984375 C118.55359375 225.71570313 118.4040625 226.53296875 118.25 227.375 C118.11078125 228.18710938 117.9715625 228.99921875 117.828125 229.8359375 C116.75657772 232.63611294 115.61109597 232.71453737 113 234 C111.8774351 236.16281282 111.8774351 236.16281282 111.25 238.625 C111.00765625 239.44226563 110.7653125 240.25953125 110.515625 241.1015625 C110.26039063 242.04128906 110.26039063 242.04128906 110 243 C109.34 243 108.68 243 108 243 C107.731875 243.7425 107.46375 244.485 107.1875 245.25 C106.04723249 247.89061949 104.90619694 249.85552844 103 252 C102.34 252 101.68 252 101 252 C100.814375 252.680625 100.62875 253.36125 100.4375 254.0625 C98.75302496 257.50468813 96.67198436 259.4938589 93.921875 262.11328125 C92.00866844 263.99149013 90.29026723 265.9512485 88.5625 268 C85.04493525 272.08005822 81.17312785 275.60126701 77 279 C76.32324219 279.58136719 75.64648438 280.16273438 74.94921875 280.76171875 C74.30597656 281.17035156 73.66273438 281.57898438 73 282 C72.01 281.67 71.02 281.34 70 281 C70.495 168.14 70.495 168.14 71 53 C54.5 53 38 53 21 53 C21.33 136.82 21.66 220.64 22 307 C20.35 307.33 18.7 307.66 17 308 C14.70387244 298.58997722 14.70387244 298.58997722 15 294 C14.01 293.67 13.02 293.34 12 293 C11.12109375 290.05078125 11.12109375 290.05078125 10.4375 286.3125 C9.57759997 281.71179191 8.51719671 277.42465335 7 273 C6.59084739 271.32045381 6.21350236 269.63269834 5.875 267.9375 C5.70742188 267.12152344 5.53984375 266.30554688 5.3671875 265.46484375 C4.9909669 262.93936288 4.93637849 260.54940492 5 258 C4.34 258 3.68 258 3 258 C2.67 254.7 2.34 251.4 2 248 C1.34 248 0.68 248 0 248 C-0.13051758 247.4423999 -0.26103516 246.8847998 -0.39550781 246.31030273 C-1.01133685 243.68547976 -1.6301496 241.0613763 -2.25 238.4375 C-2.47453857 237.48617187 -2.69907715 236.53484375 -2.93041992 235.5546875 C-4.56950556 228.66693562 -6.36092569 221.83991299 -8.30078125 215.03125 C-8.94839051 212.22373722 -9.14434139 209.86544392 -9 207 C-9.66 207 -10.32 207 -11 207 C-12.55093452 201.78886 -13.79848091 196.56485657 -14.9375 191.25 C-16.04502011 186.1360921 -17.20905552 181.08486287 -18.6875 176.0625 C-20.20252403 170.75991591 -20.69191901 165.49234045 -21 160 C-21.99 159.67 -22.98 159.34 -24 159 C-24.33 155.7 -24.66 152.4 -25 149 C-25.66 149 -26.32 149 -27 149 C-27.11069824 148.42032471 -27.22139648 147.84064941 -27.33544922 147.2434082 C-27.84349738 144.59875581 -28.35917495 141.95564607 -28.875 139.3125 C-29.04902344 138.40048828 -29.22304688 137.48847656 -29.40234375 136.54882812 C-30.26912914 132.13464329 -31.27461873 128.1647134 -33 124 C-33.4140625 121.32421875 -33.4140625 121.32421875 -33.625 118.6875 C-33.73714844 117.36298828 -33.73714844 117.36298828 -33.8515625 116.01171875 C-33.90054688 115.34785156 -33.94953125 114.68398437 -34 114 C-34.66 114 -35.32 114 -36 114 C-36.13575439 113.41621582 -36.27150879 112.83243164 -36.41137695 112.23095703 C-37.04184161 109.52820335 -37.67714858 106.82660892 -38.3125 104.125 C-38.52583984 103.2071875 -38.73917969 102.289375 -38.95898438 101.34375 C-40.24628851 95.88711756 -41.70630709 90.52494343 -43.35083008 85.16552734 C-45.13877998 79.20121159 -46.32872345 73.2457456 -46 67 C-46.99 67 -47.98 67 -49 67 C-49.33820166 65.4176994 -49.67035939 63.83410625 -50 62.25 C-50.185625 61.36828125 -50.37125 60.4865625 -50.5625 59.578125 C-51 57 -51 57 -51 53 C-69.15 53 -87.3 53 -106 53 C-106.33 55.97 -106.66 58.94 -107 62 C-107.4446345 64.56871702 -107.92213439 67.13203424 -108.4375 69.6875 C-108.68371094 70.92886719 -108.92992187 72.17023438 -109.18359375 73.44921875 C-109.93881398 76.73388474 -110.91424661 79.81292159 -112 83 C-112.85819279 86.16793825 -113.68832054 89.34134961 -114.5 92.52148438 C-115.44272272 96.14139232 -116.61312715 99.53281787 -118 103 C-118.37361479 104.63715926 -118.70742601 106.28393448 -119 107.9375 C-119.48928257 110.69408305 -120.07422287 113.2205736 -120.96875 115.87890625 C-122.07565174 119.22896112 -122.8024395 122.54252624 -123.5 126 C-124.40142101 130.46791284 -125.48603377 134.70033591 -127 139 C-127.37125 140.11375 -127.7425 141.2275 -128.125 142.375 C-128.41375 143.24125 -128.7025 144.1075 -129 145 C-129.66 145 -130.32 145 -131 145 C-131.185625 146.8871875 -131.185625 146.8871875 -131.375 148.8125 C-131.97361805 154.26079179 -132.96426426 159.62020754 -134 165 C-134.66 165 -135.32 165 -136 165 C-136.02578125 165.63164062 -136.0515625 166.26328125 -136.078125 166.9140625 C-136.58957286 174.98099006 -138.58562125 182.30767701 -141 190 C-141.66 190 -142.32 190 -143 190 C-142.94392578 191.51207031 -142.94392578 191.51207031 -142.88671875 193.0546875 C-143.0021411 197.07456934 -143.70113247 200.27059425 -144.8125 204.125 C-145.18553524 205.44737052 -145.55659629 206.77029938 -145.92578125 208.09375 C-146.10963379 208.74988281 -146.29348633 209.40601563 -146.48291016 210.08203125 C-147.24538635 212.91017715 -147.87165429 215.76446483 -148.5 218.625 C-149.97801147 225.19847643 -151.9333884 231.59035691 -154 238 C-155.65 238 -157.3 238 -159 238 C-159.103125 237.360625 -159.20625 236.72125 -159.3125 236.0625 C-159.539375 235.381875 -159.76625 234.70125 -160 234 C-160.99 233.67 -161.98 233.34 -163 233 C-163.73046875 230.93359375 -163.73046875 230.93359375 -164.1875 228.4375 C-164.34605469 227.61121094 -164.50460938 226.78492188 -164.66796875 225.93359375 C-164.77753906 225.29550781 -164.88710937 224.65742188 -165 224 C-165.66 224 -166.32 224 -167 224 C-167.33 222.02 -167.66 220.04 -168 218 C-168.66 218 -169.32 218 -170 218 C-176.47144112 201.19310193 -176.47144112 201.19310193 -176 192 C-176.66 192 -177.32 192 -178 192 C-179.83936262 181.01410297 -180.3137458 170.29993589 -180.26074219 159.17529297 C-180.25001345 156.50335001 -180.26070706 153.83207909 -180.2734375 151.16015625 C-180.28052013 140.93283907 -179.69037492 131.09604336 -178 121 C-177.34 121 -176.68 121 -176 121 C-175.96261719 120.31035156 -175.92523438 119.62070313 -175.88671875 118.91015625 C-175.43681524 112.47918249 -174.28261601 107.00933603 -172 101 C-171.608125 99.824375 -171.21625 98.64875 -170.8125 97.4375 C-170.544375 96.633125 -170.27625 95.82875 -170 95 C-169.34 95 -168.68 95 -168 95 C-167.91621094 94.34257813 -167.83242187 93.68515625 -167.74609375 93.0078125 C-166.74672824 88.97895679 -164.95502904 85.55287059 -163.0625 81.875 C-162.70220703 81.15957031 -162.34191406 80.44414063 -161.97070312 79.70703125 C-160.43066268 76.67232909 -158.89255759 73.83883639 -157 71 C-156.34 71 -155.68 71 -155 71 C-154.690625 70.05125 -154.38125 69.1025 -154.0625 68.125 C-153 65 -153 65 -152 63 C-151.34 63 -150.68 63 -150 63 C-149.34 61.35 -148.68 59.7 -148 58 C-147.34 58 -146.68 58 -146 58 C-146 57.34 -146 56.68 -146 56 C-145.34 56 -144.68 56 -144 56 C-143.938125 55.443125 -143.87625 54.88625 -143.8125 54.3125 C-142.64834483 50.99913528 -140.60541556 49.29524704 -138 47 C-137.01 46.67 -136.02 46.34 -135 46 C-134.67 45.01 -134.34 44.02 -134 43 C-133.34 43 -132.68 43 -132 43 C-132 42.34 -132 41.68 -132 41 C-131.34 41 -130.68 41 -130 41 C-129.79375 40.443125 -129.5875 39.88625 -129.375 39.3125 C-126.94471007 35.2251942 -123.48614354 32.49538118 -119 31 C-117.948125 29.88625 -117.948125 29.88625 -116.875 28.75 C-113.36008 25.3879026 -108.11357313 21 -103 21 C-103 20.34 -103 19.68 -103 19 C-101.09999886 18.04999943 -99.19956733 17.10084903 -97.296875 16.15625 C-95.7987741 15.40210397 -94.30860784 14.63192072 -92.828125 13.84375 C-92.14234375 13.4828125 -91.4565625 13.121875 -90.75 12.75 C-90.12609375 12.41484375 -89.5021875 12.0796875 -88.859375 11.734375 C-87 11 -87 11 -83 11 C-83 10.34 -83 9.68 -83 9 C-81.86820312 8.73445312 -80.73640625 8.46890625 -79.5703125 8.1953125 C-78.08845168 7.8389156 -76.6066857 7.48212424 -75.125 7.125 C-74.37863281 6.95097656 -73.63226563 6.77695313 -72.86328125 6.59765625 C-68.51116329 5.61076121 -68.51116329 5.61076121 -65 3 C-63.07641602 2.51342773 -63.07641602 2.51342773 -60.75390625 2.18359375 C-59.91666016 2.05919922 -59.07941406 1.93480469 -58.21679688 1.80664062 C-57.34087891 1.68482422 -56.46496094 1.56300781 -55.5625 1.4375 C-53.83431276 1.18842645 -52.10643237 0.93721211 -50.37890625 0.68359375 C-49.6113501 0.57587646 -48.84379395 0.46815918 -48.05297852 0.35717773 C-45.81023423 0.01948824 -45.81023423 0.01948824 -43 -1 C-28.69099426 -3.15432986 -14.20662399 -2.31599039 0 0 Z " fill="#F3F3F3" transform="translate(302,5)"/>
<path d="M0 0 C1.02814316 0.00222061 2.05628632 0.00444122 3.11558533 0.00672913 C4.85727745 0.00684242 4.85727745 0.00684242 6.63415527 0.00695801 C8.52943214 0.01469994 8.52943214 0.01469994 10.46299744 0.02259827 C12.39193092 0.02472069 12.39193092 0.02472069 14.35983276 0.02688599 C17.78427561 0.03071034 21.20867628 0.0405399 24.63310242 0.05158997 C28.12522308 0.06180587 31.61735053 0.06638399 35.10948181 0.07142639 C41.96561897 0.08216225 48.82172806 0.09923767 55.67784119 0.12025452 C55.88207703 0.94662415 56.08631287 1.77299377 56.29673767 2.62440491 C56.56558777 3.70713684 56.83443787 4.78986877 57.11143494 5.90541077 C57.37754578 6.9792804 57.64365662 8.05315002 57.91783142 9.15956116 C58.46920412 11.30748815 59.08547982 13.4390854 59.74034119 15.55775452 C60.90377273 19.97879439 61.50660929 24.40921726 62.11534119 28.93666077 C62.58574155 32.0957504 62.58574155 32.0957504 63.65049744 34.90541077 C65.28395385 40.01694928 65.77258383 45.28970239 66.44541931 50.60072327 C67.11524294 55.47822347 68.1328168 59.75599359 69.97984314 64.3184967 C70.9924121 66.93226338 71.52678956 69.55793918 72.05284119 72.30775452 C72.296474 73.5800592 72.54010681 74.85236389 72.79112244 76.16322327 C73.52502228 80.20271224 74.21745232 84.2489845 74.90830994 88.29603577 C75.23726257 90.22249939 75.23726257 90.22249939 75.57286072 92.18788147 C76.01207863 94.77547579 76.4467741 97.36384249 76.87657166 99.95301819 C77.86204084 105.80390067 78.91849143 111.4552943 80.67784119 117.12025452 C81.19287506 119.2833968 81.69324167 121.45009145 82.17784119 123.62025452 C82.94259055 127.00206074 83.73287275 130.30153495 84.74034119 133.62025452 C86.7879731 141.26474698 88.04633686 149.19759759 87.67784119 157.12025452 C88.33784119 157.12025452 88.99784119 157.12025452 89.67784119 157.12025452 C90.93626065 163.86178734 91.94188575 170.25509589 91.67784119 177.12025452 C92.66784119 177.12025452 93.65784119 177.12025452 94.67784119 177.12025452 C94.96788025 179.05578186 94.96788025 179.05578186 95.26377869 181.03041077 C95.52656314 182.74789487 95.78959722 184.46534079 96.05284119 186.18275452 C96.17916931 187.03031311 96.30549744 187.8778717 96.43565369 188.75111389 C97.19708861 193.68140499 98.29034274 198.32159386 99.67784119 203.12025452 C100.23382237 205.98369628 100.67389967 208.86222546 101.11534119 211.74525452 C102.19290043 224.31038951 102.19290043 224.31038951 106.67784119 235.12025452 C107.44928341 238.09903508 108.04162008 241.10880797 108.67784119 244.12025452 C111.15284119 235.70525452 111.15284119 235.70525452 113.67784119 227.12025452 C114.33784119 227.12025452 114.99784119 227.12025452 115.67784119 227.12025452 C115.715224 226.50279358 115.75260681 225.88533264 115.79112244 225.24916077 C116.26507535 219.14353212 117.48384492 213.83292404 119.67784119 208.12025452 C121.32784119 208.12025452 122.97784119 208.12025452 124.67784119 208.12025452 C125.08002869 209.26494202 125.08002869 209.26494202 125.49034119 210.43275452 C126.63585086 213.02522377 127.67495641 214.20840995 129.67784119 216.12025452 C129.67784119 216.78025452 129.67784119 217.44025452 129.67784119 218.12025452 C130.26307556 218.36646545 130.84830994 218.61267639 131.45127869 218.86634827 C134.02186136 220.31399219 135.43239811 221.91267933 137.30284119 224.18275452 C139.63269671 227.09901163 139.63269671 227.09901163 142.67784119 229.12025452 C142.67784119 229.78025452 142.67784119 230.44025452 142.67784119 231.12025452 C143.31721619 231.38837952 143.95659119 231.65650452 144.61534119 231.93275452 C146.67784119 233.12025452 146.67784119 233.12025452 147.67784119 236.12025452 C148.33784119 236.12025452 148.99784119 236.12025452 149.67784119 236.12025452 C149.67784119 236.78025452 149.67784119 237.44025452 149.67784119 238.12025452 C150.39971619 238.38837952 151.12159119 238.65650452 151.86534119 238.93275452 C154.73258243 240.14336749 157.18372634 241.24966838 159.67784119 243.12025452 C161.25703749 247.57293688 160.10659312 251.26002456 158.80284119 255.62025452 C157.6127589 259.76502386 156.4458868 263.87149154 155.67784119 268.12025452 C154.68784119 268.12025452 153.69784119 268.12025452 152.67784119 268.12025452 C152.60436462 269.15472717 152.60436462 269.15472717 152.52940369 270.21009827 C152.04056068 276.35434921 151.14958519 282.13516222 149.67784119 288.12025452 C149.01784119 288.12025452 148.35784119 288.12025452 147.67784119 288.12025452 C147.60436462 289.04644592 147.60436462 289.04644592 147.52940369 289.99134827 C146.76437246 298.65730546 145.25531049 306.1876052 141.67784119 314.12025452 C141.34784119 315.44025452 141.01784119 316.76025452 140.67784119 318.12025452 C118.89784119 318.12025452 97.11784119 318.12025452 74.67784119 318.12025452 C74.34784119 315.15025452 74.01784119 312.18025452 73.67784119 309.12025452 C73.01784119 309.12025452 72.35784119 309.12025452 71.67784119 309.12025452 C71.57237976 308.49046692 71.46691833 307.86067932 71.35826111 307.21180725 C70.86965588 304.32551038 70.3676122 301.44170336 69.86534119 298.55775452 C69.69969666 297.56710999 69.53405212 296.57646545 69.36338806 295.55580139 C68.37874732 289.96378513 67.04962579 285.26560144 64.67784119 280.12025452 C64.01768494 277.46009827 64.01768494 277.46009827 63.61534119 275.05775452 C63.15517214 272.35371355 62.60734372 269.91532667 61.71299744 267.31556702 C60.29497925 262.93843918 59.5869316 258.47858076 58.82237244 253.95423889 C58.30282468 251.01292821 57.74777252 248.2927518 56.62315369 245.51869202 C55.46435029 242.57858754 55.26031128 239.95438431 55.05284119 236.80775452 C54.97807556 235.7391217 54.90330994 234.67048889 54.82627869 233.56947327 C54.77729431 232.76123108 54.72830994 231.95298889 54.67784119 231.12025452 C54.01784119 231.12025452 53.35784119 231.12025452 52.67784119 231.12025452 C49.72038973 220.84258632 47.53910263 210.44098481 45.44737244 199.96009827 C45.22807068 198.87559387 45.00876892 197.79108948 44.78282166 196.67372131 C44.34165368 194.49031096 43.90696413 192.30558051 43.47911072 190.11952209 C43.27527771 189.11429504 43.0714447 188.10906799 42.86143494 187.07337952 C42.68153015 186.16749084 42.50162537 185.26160217 42.31626892 184.32826233 C41.8177773 181.93827542 41.8177773 181.93827542 39.67784119 180.12025452 C39.11534119 177.94837952 39.11534119 177.94837952 38.67784119 175.37025452 C38.19489986 172.5588461 37.63399084 169.99206297 36.70909119 167.28822327 C35.51932046 163.63328364 34.8283935 159.96096221 34.17784119 156.18275452 C33.16475828 150.33247905 31.77633633 144.74743399 30.05284119 139.05653381 C26.67719599 127.85630986 23.77471708 116.61927058 21.30284119 105.18275452 C21.0401947 103.98046204 20.77754822 102.77816956 20.50694275 101.53944397 C20.14681091 99.83341003 20.14681091 99.83341003 19.77940369 98.09291077 C19.56622498 97.08494446 19.35304626 96.07697815 19.13340759 95.03846741 C18.66202094 92.01891508 18.59787127 89.17130521 18.67784119 86.12025452 C18.01784119 86.12025452 17.35784119 86.12025452 16.67784119 86.12025452 C14.99733246 79.59988064 13.40101446 73.10012922 12.20518494 66.47181702 C11.70919073 64.05100101 11.70919073 64.05100101 10.77159119 61.51478577 C8.95375926 55.87301454 7.84985046 50.0572541 6.62120056 44.26283264 C5.72491648 40.17789928 4.83629887 36.4813435 3.15049744 32.63978577 C1.12350295 27.79543024 0.39655133 22.90876058 -0.44715881 17.74525452 C-0.77968677 15.75770191 -1.11544393 13.77068591 -1.45497131 11.78431702 C-1.59821838 10.91242737 -1.74146545 10.04053772 -1.88905334 9.14222717 C-2.12782925 7.13347724 -2.12782925 7.13347724 -3.32215881 6.12025452 C-3.44715881 3.62025452 -3.44715881 3.62025452 -3.32215881 1.12025452 C-2.32215881 0.12025452 -2.32215881 0.12025452 0 0 Z " fill="#F3F3F3" transform="translate(18.322158813476563,53.87974548339844)"/>
<path d="M0 0 C1.24132187 0.00222061 2.48264374 0.00444122 3.76158142 0.00672913 C4.44447739 0.0065831 5.12737335 0.00643707 5.83096313 0.00628662 C8.09815092 0.00698575 10.36525752 0.01477811 12.63243103 0.02259827 C14.20041865 0.02446245 15.76840685 0.02588635 17.33639526 0.02688599 C21.47103981 0.03071117 25.60564944 0.04054146 29.74028015 0.05158997 C33.95627876 0.06180407 38.172283 0.0663836 42.38829041 0.07142639 C50.66630125 0.08216373 58.94428368 0.09924015 67.22227478 0.12025452 C67.52862854 1.25696594 67.52862854 1.25696594 67.84117126 2.41664124 C68.11002136 3.40938049 68.37887146 4.40211975 68.65586853 5.42494202 C69.05503479 6.90196594 69.05503479 6.90196594 69.46226501 8.40882874 C70.01234722 10.37131282 70.6286983 12.3156178 71.28477478 14.24525452 C72.32414761 17.43266453 73.02099795 20.62314348 73.72618103 23.89759827 C74.72726577 28.3827732 76.08201652 32.72493496 77.59727478 37.05775452 C79.27780405 42.01446711 80.50091994 47.07562301 81.73033142 52.15809631 C82.88151217 56.88390812 84.21942398 61.50284001 85.80430603 66.10462952 C86.28694274 68.43211123 85.96236996 69.88486498 85.22227478 72.12025452 C75.93046904 72.33010709 67.34822989 72.09550319 58.22227478 70.12025452 C56.96414978 69.95525452 55.70602478 69.79025452 54.40977478 69.62025452 C51.14169166 69.10761403 48.35396638 68.18384789 45.22227478 67.12025452 C43.26550762 66.65528014 41.30698061 66.19768347 39.34727478 65.74525452 C34.1347935 64.47770324 29.93534624 62.64511423 25.22227478 60.12025452 C23.89817975 59.75193231 22.56596293 59.4090296 21.22227478 59.12025452 C21.22227478 58.46025452 21.22227478 57.80025452 21.22227478 57.12025452 C20.17039978 56.93462952 20.17039978 56.93462952 19.09727478 56.74525452 C16.04571091 56.08187107 13.1688654 55.14813497 10.22227478 54.12025452 C10.22227478 53.46025452 10.22227478 52.80025452 10.22227478 52.12025452 C8.24227478 51.46025452 6.26227478 50.80025452 4.22227478 50.12025452 C4.22227478 49.46025452 4.22227478 48.80025452 4.22227478 48.12025452 C3.10852478 47.68712952 3.10852478 47.68712952 1.97227478 47.24525452 C-0.34512319 46.29722807 -2.55689637 45.2717954 -4.77772522 44.12025452 C-4.77772522 43.46025452 -4.77772522 42.80025452 -4.77772522 42.12025452 C-5.72647522 41.83150452 -6.67522522 41.54275452 -7.65272522 41.24525452 C-10.77772522 40.12025452 -10.77772522 40.12025452 -12.77772522 38.12025452 C-12.82460022 35.80775452 -12.82460022 35.80775452 -12.52772522 33.12025452 C-12.44006897 32.23337952 -12.35241272 31.34650452 -12.26210022 30.43275452 C-11.77772522 28.12025452 -11.77772522 28.12025452 -9.77772522 26.12025452 C-9.20749738 23.84504544 -8.71837188 21.54907019 -8.27772522 19.24525452 C-7.4944473 15.16710099 -6.70899763 11.78245988 -4.77772522 8.12025452 C-4.42229095 5.79018541 -4.08634992 3.45698436 -3.77772522 1.12025452 C-2.77772522 0.12025452 -2.77772522 0.12025452 0 0 Z " fill="#F3F3F3" transform="translate(191.77772521972656,246.87974548339844)"/>
<path d="M0 0 C0.46628121 7.14964522 -1.61265155 13.13370722 -4.0078125 19.80859375 C-5.15406842 23.49556653 -5.85039758 27.2023243 -6.5 31 C-7.32477882 35.82178387 -8.42109259 40.36432783 -10 45 C-10.41256395 46.95076535 -10.78943127 48.90952599 -11.125 50.875 C-11.29257812 51.84179688 -11.46015625 52.80859375 -11.6328125 53.8046875 C-11.75398438 54.52914062 -11.87515625 55.25359375 -12 56 C-12.66 56 -13.32 56 -14 56 C-13.95875 56.721875 -13.9175 57.44375 -13.875 58.1875 C-14 61 -14 61 -16 66 C-37.78 66 -59.56 66 -82 66 C-84.25 57 -84.25 57 -84 53 C-84.66 53 -85.32 53 -86 53 C-86.50734284 50.6263603 -87.00602386 48.25142575 -87.5 45.875 C-87.64308594 45.20984375 -87.78617187 44.5446875 -87.93359375 43.859375 C-88.7612283 39.83943578 -89.15330658 36.10095101 -89 32 C-89.99 31.67 -90.98 31.34 -92 31 C-92 29.35 -92 27.7 -92 26 C-91.41734375 25.95512451 -90.8346875 25.91024902 -90.234375 25.86401367 C-69.20227929 24.48579531 -69.20227929 24.48579531 -49 19 C-46.54217833 18.2815051 -44.07248108 17.61460963 -41.60083008 16.9453125 C-33.30094236 14.68956857 -25.40745821 12.49060195 -18 8 C-17.13117188 7.48050781 -16.26234375 6.96101563 -15.3671875 6.42578125 C-13.67764355 5.40860683 -11.99547415 4.37898298 -10.32421875 3.33203125 C-6.8341788 1.33185709 -4.05408465 0 0 0 Z " fill="#F3F3F3" transform="translate(370,306)"/>
<path d="M0 0 C1.32 0 2.64 0 4 0 C4 1.65 4 3.3 4 5 C4.66 5 5.32 5 6 5 C6.50449402 7.58252893 7.00374301 10.16588703 7.5 12.75 C7.71462891 13.84441406 7.71462891 13.84441406 7.93359375 14.9609375 C8.58888879 18.39343532 9 21.49169491 9 25 C9.66 25 10.32 25 11 25 C11 26.98 11 28.96 11 31 C11.66 31 12.32 31 13 31 C15.09757194 38.63679103 17.11451386 46.21801277 18.5703125 54.0078125 C18.96846738 56.12330347 18.96846738 56.12330347 20 58.5 C22.56014339 64.90035846 23 71.14009052 23 78 C8.81 78 -5.38 78 -20 78 C-20 70.125 -20 70.125 -18.5 65.5625 C-18.2215625 64.69753906 -17.943125 63.83257812 -17.65625 62.94140625 C-17.33140625 61.98041016 -17.33140625 61.98041016 -17 61 C-16.34 61 -15.68 61 -15 61 C-14.95101562 60.39414063 -14.90203125 59.78828125 -14.8515625 59.1640625 C-14.3017522 53.00239536 -13.32390951 47.04114049 -12 41 C-11.34 41 -10.68 41 -10 41 C-9.95101562 40.39414063 -9.90203125 39.78828125 -9.8515625 39.1640625 C-9.3017522 33.00239536 -8.32390951 27.04114049 -7 21 C-6.34 21 -5.68 21 -5 21 C-5 19.02 -5 17.04 -5 15 C-4.34 15 -3.68 15 -3 15 C-3 13.35 -3 11.7 -3 10 C-2.34 10 -1.68 10 -1 10 C-0.67 6.7 -0.34 3.4 0 0 Z " fill="#F3F3F3" transform="translate(222,126)"/>
</svg>
